# xmcd
#
# Track frame offsets:
#	300
#	24410
#	39832
#	52534
#	83757
#	97776
#	115431
#	129416
#
# Disc length: 1985 seconds
#
# Revision: 0
# Processed by: cddbd v1.5.2PL0 Copyright (c) Steve Scherf et al.
# Submitted via: audiograbber 1.83.01
#
DISCID=4f07bd08
DTITLE=John Lee Hooker - The Real Folk Blues
DYEAR=1900
DGENRE=Blues
TTITLE0=I Put My Trust In You
TTITLE1=I'll Never Trust Your Love Again
TTITLE2=I'm In The Mood
TTITLE3=Let's Go Out Tonight
TTITLE4=One Bourbon, One Scotch, One Beer
TTITLE5=Peace Lovin' Man
TTITLE6=Stella Mae
TTITLE7=The Waterfront
EXTD=
EXTT0=
EXTT1=
EXTT2=
EXTT3=
EXTT4=
EXTT5=
EXTT6=
EXTT7=
PLAYORDER=
